<?xml version="1.0" encoding="utf-8"?>
<!-- Generator: Adobe Illustrator 19.0.0, SVG Export Plug-In . SVG Version: 6.00 Build 0)  -->
<svg version="1.1" id="Layer_1" xmlns="http://www.w3.org/2000/svg" xmlns:xlink="http://www.w3.org/1999/xlink" x="0px" y="0px"
	 viewBox="-461 264.8 35.8 32.2" style="enable-background:new -461 264.8 35.8 32.2;" xml:space="preserve">
<style type="text/css">
	.st0{fill:#FFC80A;}
</style>
<path id="conversation" d="M-430.7,264.8h-25c-3,0-5.4,2.4-5.4,5.4v15.5c0,3,2.4,5.4,5.4,5.4h1.7l-1,5.2c-0.1,0.3,0.2,0.6,0.5,0.7
	c0.1,0,0.3,0,0.4-0.1l11.2-5.9h12.4c3,0,5.4-2.4,5.4-5.4v-15.5C-425.3,267.2-427.7,264.8-430.7,264.8z M-426.5,285.7
	c0,2.3-1.9,4.2-4.2,4.2h-12.5c-0.1,0-0.2,0-0.3,0.1l-10.2,5.4l0.9-4.7c0.1-0.3-0.1-0.6-0.5-0.7h-0.1h-2.4c-2.3,0-4.2-1.9-4.2-4.2
	v-15.5c0-2.3,1.9-4.2,4.2-4.2h25c2.3,0,4.2,1.9,4.2,4.2v15.4H-426.5z"/>
<path id="Icon_awesome-star" class="st0" d="M-443.8,272.3l-1.7,3.4l-3.7,0.5c-0.4,0.1-0.8,0.5-0.7,0.9c0,0.2,0.1,0.3,0.2,0.5
	l2.7,2.6l-0.6,3.7c-0.1,0.4,0.2,0.9,0.7,0.9c0.2,0,0.4,0,0.5-0.1l3.3-1.7l3.3,1.7c0.4,0.2,0.9,0.1,1.1-0.3c0.1-0.2,0.1-0.3,0.1-0.5
	l-0.6-3.7l2.7-2.6c0.3-0.3,0.3-0.8,0-1.2c-0.1-0.1-0.3-0.2-0.5-0.2l-3.7-0.5l-1.7-3.4c-0.2-0.4-0.7-0.6-1.1-0.4
	C-443.6,272-443.7,272.2-443.8,272.3L-443.8,272.3z"/>
</svg>
