<svg xmlns="http://www.w3.org/2000/svg" width="31.178" height="41" viewBox="0 0 31.178 41"><defs><style>.a{fill:#fbe176;}</style></defs><path class="a" d="M251.912,485.64c3.161,2.916,3.12,5.689-6.007,8.057-7,.624-12.944.272-16.864-1.912a27.613,27.613,0,0,0,19.657,2.373,6.233,6.233,0,0,0,1.386-.5C254.262,491.545,257.8,489.332,251.912,485.64Z" transform="translate(-227.993 -453.976)"/><path class="a" d="M268.77,423.07c-3.072,9.459-6.746,17.9-18.3,12.944,4.054,3.153,8.08,3.422,12.085,1.366a7.436,7.436,0,0,0,2.7-2.373A18.938,18.938,0,0,0,268.77,423.07Z" transform="translate(-245.309 -401.79)"/><path class="a" d="M277.982,416.354c-7.9,1.958-15.492,2.033-22.672-.312a32.375,32.375,0,0,0,13.132.886c3.941-.83,1.64-1.48-1.8-2.1A20.8,20.8,0,0,1,277.982,416.354Z" transform="translate(-255.31 -394.754)"/><path class="a" d="M271.4,407.372c-4.121-1.268-10.289-1.543-17.8-1.162C263.061,405.609,269.135,405.963,271.4,407.372Z" transform="translate(-248.441 -387.493)"/><path class="a" d="M206.744,429.782c-1.117.722-1.893.893-2.086.113a1.327,1.327,0,0,1,.279-1.143c1.211-1.485,4.562-4.016,7.76-6.472a3.268,3.268,0,0,0,1.11-1.54c.606-1.789.614-3.231-1.439-3.468a3.533,3.533,0,0,0-2.186.481,9.433,9.433,0,0,0-2.833,2.673c2.386-1.611,4.126-2.157,4.605-.619a2.192,2.192,0,0,1-.319,1.884,17.317,17.317,0,0,1-3.757,3.832,7.445,7.445,0,0,0-.664.591l-2.655,2.655a1.719,1.719,0,0,0-.5,1.328c.048.738.229,1.218.621,1.28A2.3,2.3,0,0,0,206.744,429.782Z" transform="translate(-182.983 -396.937)"/><path class="a" d="M267.4,308.584c2.514-2.049,4.547-2.249,5.891.2.455,2.337-.745,4.419-4.106,6.167-1.845.974-3.09,2.257-2.972,4.238a1.771,1.771,0,0,0,1.182,1.575,5.476,5.476,0,0,0,1.572.236c-2.3-.519-3.458-1.543-1.8-3.8a5.023,5.023,0,0,1,1.759-1.475,32.035,32.035,0,0,0,4.793-3.024,4.539,4.539,0,0,0,1.394-1.7,3.833,3.833,0,0,0,.284-2.627,3.96,3.96,0,0,0-2.788-2.743C270.479,305,268.686,305.768,267.4,308.584Z" transform="translate(-254.649 -303.665)"/><path class="a" d="M318.914,304.38c-1.45-1.2-2.624-2.942-3.03-6.217a2.831,2.831,0,0,1,.375-1.867c.6-.954,1.525-1.024,2.821-.085a2.605,2.605,0,0,1,.617.634,3.83,3.83,0,0,1,.656,1.61c.045-1.754-.408-2.786-1.22-3.3a2.235,2.235,0,0,0-1.2-.319c-1.143,0-1.942.31-2.264,1.065-.448.979-.589,2.388.221,4.829a4.323,4.323,0,0,0,.446.966A12.651,12.651,0,0,0,318.914,304.38Z" transform="translate(-307.641 -294.837)"/></svg>