<svg xmlns="http://www.w3.org/2000/svg" width="31.178" height="41" viewBox="0 0 31.178 41"><defs><style>.a{fill:#fbe176;}</style></defs><path class="a" d="M232.154,485.64c-3.161,2.916-3.12,5.689,6.007,8.057,7,.624,12.944.272,16.864-1.912a27.613,27.613,0,0,1-19.657,2.373,6.232,6.232,0,0,1-1.386-.5C229.8,491.545,226.261,489.332,232.154,485.64Z" transform="translate(-224.895 -453.976)"/><path class="a" d="M250.484,423.07c3.072,9.459,6.746,17.9,18.3,12.944-4.054,3.153-8.08,3.422-12.085,1.366a7.436,7.436,0,0,1-2.7-2.373A18.938,18.938,0,0,1,250.484,423.07Z" transform="translate(-242.767 -401.79)"/><path class="a" d="M255.31,416.354c7.9,1.958,15.492,2.033,22.672-.312a32.375,32.375,0,0,1-13.132.886c-3.941-.83-1.64-1.48,1.8-2.1A20.8,20.8,0,0,0,255.31,416.354Z" transform="translate(-246.805 -394.754)"/><path class="a" d="M253.6,407.372c4.121-1.268,10.289-1.543,17.8-1.162C261.936,405.609,255.862,405.963,253.6,407.372Z" transform="translate(-245.379 -387.493)"/><path class="a" d="M211.475,429.782c1.117.722,1.893.893,2.086.113a1.328,1.328,0,0,0-.279-1.143c-1.211-1.485-4.562-4.016-7.76-6.472a3.268,3.268,0,0,1-1.11-1.54c-.606-1.789-.614-3.231,1.439-3.468a3.533,3.533,0,0,1,2.186.481,9.434,9.434,0,0,1,2.833,2.673c-2.386-1.611-4.126-2.157-4.605-.619a2.192,2.192,0,0,0,.319,1.884,17.317,17.317,0,0,0,3.757,3.832,7.447,7.447,0,0,1,.664.591l2.655,2.655a1.719,1.719,0,0,1,.5,1.328c-.048.738-.229,1.218-.621,1.28A2.3,2.3,0,0,1,211.475,429.782Z" transform="translate(-204.058 -396.937)"/><path class="a" d="M274.319,308.584c-2.514-2.049-4.547-2.249-5.891.2-.455,2.337.745,4.419,4.106,6.167,1.845.974,3.09,2.257,2.972,4.238a1.771,1.771,0,0,1-1.182,1.575,5.476,5.476,0,0,1-1.572.236c2.3-.519,3.458-1.543,1.8-3.8a5.023,5.023,0,0,0-1.759-1.475A32.035,32.035,0,0,1,268,312.7a4.538,4.538,0,0,1-1.394-1.7,3.833,3.833,0,0,1-.284-2.627,3.96,3.96,0,0,1,2.788-2.743C271.239,305,273.031,305.768,274.319,308.584Z" transform="translate(-255.891 -303.665)"/><path class="a" d="M316.753,304.38c1.45-1.2,2.624-2.942,3.03-6.217a2.831,2.831,0,0,0-.375-1.867c-.6-.954-1.525-1.024-2.821-.085a2.605,2.605,0,0,0-.617.634,3.83,3.83,0,0,0-.656,1.61c-.045-1.754.408-2.786,1.22-3.3a2.235,2.235,0,0,1,1.2-.319c1.143,0,1.942.31,2.264,1.065.448.979.589,2.388-.221,4.829a4.324,4.324,0,0,1-.446.966A12.65,12.65,0,0,1,316.753,304.38Z" transform="translate(-296.849 -294.837)"/></svg>