<?xml version="1.0" encoding="utf-8"?>
<!-- Generator: Adobe Illustrator 19.0.0, SVG Export Plug-In . SVG Version: 6.00 Build 0)  -->
<svg version="1.1" id="Layer_1" xmlns="http://www.w3.org/2000/svg" xmlns:xlink="http://www.w3.org/1999/xlink" x="0px" y="0px"
	 viewBox="-289 376 31.2 41" style="enable-background:new -289 376 31.2 41;" xml:space="preserve">
<style type="text/css">
	.st0{fill:#F8B551;}
</style>
<path class="st0" d="M-265.1,407.7c3.2,2.9,3.1,5.7-6,8.1c-7,0.6-12.9,0.3-16.9-1.9c6,3.2,13,4,19.7,2.4c0.5-0.1,0.9-0.3,1.4-0.5
	C-262.7,413.6-259.2,411.4-265.1,407.7z"/>
<path class="st0" d="M-265.5,397.3c-3.1,9.5-6.7,17.9-18.3,12.9c4.1,3.2,8.1,3.4,12.1,1.4c1.1-0.6,2-1.4,2.7-2.4
	C-266.6,405.7-265.3,401.5-265.5,397.3z"/>
<path class="st0" d="M-266.3,397.6c-7.9,2-15.5,2-22.7-0.3c4.3,1.2,8.7,1.5,13.1,0.9c3.9-0.8,1.6-1.5-1.8-2.1
	C-273.8,395.5-269.9,396-266.3,397.6z"/>
<path class="st0" d="M-266,395.9c-4.1-1.3-10.3-1.5-17.8-1.2C-274.4,394.1-268.3,394.5-266,395.9z"/>
<path class="st0" d="M-265.2,408.8c-1.1,0.7-1.9,0.9-2.1,0.1c-0.1-0.4,0-0.8,0.3-1.1c1.2-1.5,4.6-4,7.8-6.5c0.5-0.4,0.9-0.9,1.1-1.5
	c0.6-1.8,0.6-3.2-1.4-3.5c-0.8-0.1-1.5,0.1-2.2,0.5c-1.1,0.7-2.1,1.6-2.8,2.7c2.4-1.6,4.1-2.2,4.6-0.6c0.2,0.6,0.1,1.3-0.3,1.9
	c-1,1.5-2.3,2.8-3.8,3.8c-0.2,0.2-0.5,0.4-0.7,0.6l-2.7,2.7c-0.4,0.4-0.5,0.8-0.5,1.3c0,0.7,0.2,1.2,0.6,1.3
	C-266.4,410.4-265.5,409.8-265.2,408.8z"/>
<path class="st0" d="M-276.2,380.9c2.5-2,4.5-2.2,5.9,0.2c0.5,2.3-0.7,4.4-4.1,6.2c-1.8,1-3.1,2.3-3,4.2c0,0.7,0.5,1.3,1.2,1.6
	c0.5,0.2,1,0.2,1.6,0.2c-2.3-0.5-3.5-1.5-1.8-3.8c0.5-0.6,1.1-1.1,1.8-1.5c1.7-0.9,3.3-1.9,4.8-3c0.6-0.4,1.1-1,1.4-1.7
	c0.4-0.8,0.5-1.7,0.3-2.6c-0.4-1.3-1.4-2.4-2.8-2.7C-273.2,377.3-275,378.1-276.2,380.9z"/>
<path class="st0" d="M-277.7,385.5c-1.5-1.2-2.6-2.9-3-6.2c-0.1-0.6,0-1.3,0.4-1.9c0.6-1,1.5-1,2.8-0.1c0.2,0.2,0.4,0.4,0.6,0.6
	c0.3,0.5,0.6,1,0.7,1.6c0-1.8-0.4-2.8-1.2-3.3c-0.4-0.2-0.8-0.3-1.2-0.3c-1.1,0-1.9,0.3-2.3,1.1c-0.4,1-0.6,2.4,0.2,4.8
	c0.1,0.3,0.3,0.7,0.4,1C-279.6,383.9-278.7,384.8-277.7,385.5z"/>
</svg>
