<?xml version="1.0" encoding="utf-8"?>
<!-- Generator: Adobe Illustrator 19.0.0, SVG Export Plug-In . SVG Version: 6.00 Build 0)  -->
<svg version="1.1" id="Layer_1" xmlns="http://www.w3.org/2000/svg" xmlns:xlink="http://www.w3.org/1999/xlink" x="0px" y="0px"
	 viewBox="-289 376 31.2 41" style="enable-background:new -289 376 31.2 41;" xml:space="preserve">
<style type="text/css">
	.st0{fill:#F8B551;}
</style>
<path class="st0" d="M-281.7,407.7c-3.2,2.9-3.1,5.7,6,8.1c7,0.6,12.9,0.3,16.9-1.9c-6,3.2-13,4-19.7,2.4c-0.5-0.1-0.9-0.3-1.4-0.5
	C-284.1,413.6-287.6,411.4-281.7,407.7z"/>
<path class="st0" d="M-281.3,397.3c3.1,9.5,6.7,17.9,18.3,12.9c-4.1,3.2-8.1,3.4-12.1,1.4c-1.1-0.6-2-1.4-2.7-2.4
	C-280.3,405.7-281.5,401.5-281.3,397.3z"/>
<path class="st0" d="M-280.5,397.6c7.9,2,15.5,2,22.7-0.3c-4.3,1.2-8.7,1.5-13.1,0.9c-3.9-0.8-1.6-1.5,1.8-2.1
	C-273,395.5-276.9,396-280.5,397.6z"/>
<path class="st0" d="M-280.8,395.9c4.1-1.3,10.3-1.5,17.8-1.2C-272.4,394.1-278.5,394.5-280.8,395.9z"/>
<path class="st0" d="M-281.6,408.8c1.1,0.7,1.9,0.9,2.1,0.1c0.1-0.4,0-0.8-0.3-1.1c-1.2-1.5-4.6-4-7.8-6.5c-0.5-0.4-0.9-0.9-1.1-1.5
	c-0.6-1.8-0.6-3.2,1.4-3.5c0.8-0.1,1.5,0.1,2.2,0.5c1.1,0.7,2.1,1.6,2.8,2.7c-2.4-1.6-4.1-2.2-4.6-0.6c-0.2,0.6-0.1,1.3,0.3,1.9
	c1,1.5,2.3,2.8,3.8,3.8c0.2,0.2,0.5,0.4,0.7,0.6l2.7,2.7c0.4,0.4,0.5,0.8,0.5,1.3c0,0.7-0.2,1.2-0.6,1.3
	C-280.5,410.4-281.3,409.8-281.6,408.8z"/>
<path class="st0" d="M-270.6,380.9c-2.5-2-4.5-2.2-5.9,0.2c-0.5,2.3,0.7,4.4,4.1,6.2c1.8,1,3.1,2.3,3,4.2c0,0.7-0.5,1.3-1.2,1.6
	c-0.5,0.2-1,0.2-1.6,0.2c2.3-0.5,3.5-1.5,1.8-3.8c-0.5-0.6-1.1-1.1-1.8-1.5c-1.7-0.9-3.3-1.9-4.8-3c-0.6-0.4-1.1-1-1.4-1.7
	c-0.4-0.8-0.5-1.7-0.3-2.6c0.4-1.3,1.4-2.4,2.8-2.7C-273.7,377.3-271.9,378.1-270.6,380.9z"/>
<path class="st0" d="M-269.1,385.5c1.5-1.2,2.6-2.9,3-6.2c0.1-0.6,0-1.3-0.4-1.9c-0.6-1-1.5-1-2.8-0.1c-0.2,0.2-0.4,0.4-0.6,0.6
	c-0.3,0.5-0.6,1-0.7,1.6c0-1.8,0.4-2.8,1.2-3.3c0.4-0.2,0.8-0.3,1.2-0.3c1.1,0,1.9,0.3,2.3,1.1c0.4,1,0.6,2.4-0.2,4.8
	c-0.1,0.3-0.3,0.7-0.4,1C-267.2,383.9-268.1,384.8-269.1,385.5z"/>
</svg>
