<?xml version="1.0" encoding="utf-8"?>
<!-- Generator: Adobe Illustrator 25.2.3, SVG Export Plug-In . SVG Version: 6.00 Build 0)  -->
<svg version="1.1" id="Layer_1" xmlns="http://www.w3.org/2000/svg" xmlns:xlink="http://www.w3.org/1999/xlink" x="0px" y="0px"
	 viewBox="0 0 320 168.7" style="enable-background:new 0 0 320 168.7;" xml:space="preserve">
<style type="text/css">
	.st0{fill:#FFFFFF;stroke:#FFFFFF;stroke-miterlimit:10;}
	.st1{fill:#FFFFFF;}
</style>
<g>
	<g>
		<path class="st0" d="M9.3,118.9h3.3V136c0.6-0.8,2.3-2.7,5.5-2.7c2.3,0,4.3,0.9,5.5,2.7c1,1.5,1.1,3.1,1.1,5.2v12.1h-3.3v-12.1
			c0-1.2-0.1-2.6-0.9-3.6c-0.6-0.9-1.7-1.4-3.1-1.4c-1.1,0-2.4,0.3-3.4,1.5c-1.3,1.6-1.4,3.9-1.4,5.3v10.3H9.3V118.9z"/>
		<path class="st0" d="M37,151.5l-8.8-17.8H32l6.8,14l6.2-14h3.7l-14,30.5H31L37,151.5z"/>
		<path class="st0" d="M66.9,133.8h3.3v19.1c0,2.1,0,5.2-1.8,7.7c-1.4,2-4,3.6-7.6,3.6c-3.3,0-5.5-1.3-6.8-2.6
			c-1.3-1.3-2.5-3.5-2.5-6.3h3.3c0,1.7,0.6,3.1,1.5,4.1c1.4,1.6,3.1,1.9,4.6,1.9c2.3,0,4-0.9,5.1-2.7c1-1.6,1.1-3.4,1.1-5v-2.8
			c-1.1,1.5-3.2,3.3-6.5,3.3c-2.8,0-5.1-1.1-6.5-2.6c-1.3-1.3-2.8-3.8-2.8-7.8c0-3.8,1.4-6.2,2.8-7.6c1.6-1.6,4-2.6,6.5-2.6
			c2.8,0,5,1.2,6.5,3.3V133.8z M56.4,138.2c-1.6,1.7-1.9,3.8-1.9,5.4c0,1.7,0.3,4,2.2,5.8c1.1,1,2.3,1.6,4.1,1.6
			c1.7,0,3.1-0.6,4.2-1.7c1.3-1.3,2.2-3.4,2.2-5.7s-0.8-4.3-2-5.5c-1.1-1.1-2.6-1.7-4.3-1.7C58.7,136.3,57.4,137.2,56.4,138.2z"/>
		<path class="st0" d="M91.3,133.8h3.3v19.1c0,2.1,0,5.2-1.8,7.7c-1.4,2-4,3.6-7.6,3.6c-3.3,0-5.5-1.3-6.8-2.6
			c-1.3-1.3-2.5-3.5-2.5-6.3h3.3c0,1.7,0.6,3.1,1.5,4.1c1.4,1.6,3.1,1.9,4.6,1.9c2.3,0,4-0.9,5.1-2.7c1-1.6,1.1-3.4,1.1-5v-2.8
			c-1.1,1.5-3.2,3.3-6.5,3.3c-2.8,0-5.1-1.1-6.5-2.6c-1.3-1.3-2.8-3.8-2.8-7.8c0-3.8,1.4-6.2,2.8-7.6c1.6-1.6,4-2.6,6.5-2.6
			c2.8,0,5,1.2,6.5,3.3V133.8z M80.8,138.2c-1.6,1.7-1.9,3.8-1.9,5.4c0,1.7,0.3,4,2.2,5.8c1.1,1,2.3,1.6,4.1,1.6
			c1.7,0,3.1-0.6,4.2-1.7c1.3-1.3,2.2-3.4,2.2-5.7s-0.8-4.3-2-5.5c-1.1-1.1-2.6-1.7-4.3-1.7C83.1,136.3,81.7,137.2,80.8,138.2z"/>
		<path class="st0" d="M117.9,148.4c-0.6,1.1-1.4,2.3-2.3,3.2c-1.7,1.6-3.9,2.4-6.3,2.4c-4.6,0-9.4-3-9.4-10.3
			c0-5.9,3.5-10.4,9.2-10.4c3.7,0,6.1,1.9,7.2,3.6c1.2,1.7,1.9,4.8,1.8,7.4h-14.9c0,4.1,2.8,6.7,6.1,6.7c1.6,0,2.8-0.5,3.9-1.4
			c0.9-0.8,1.6-1.7,2-2.7L117.9,148.4z M114.6,141.4c-0.6-3.1-2.8-5.1-5.6-5.1s-5.1,2.2-5.6,5.1H114.6z"/>
		<path class="st0" d="M123.2,133.8h3.3v2.3c0.6-0.8,2.3-2.7,5.5-2.7c2.3,0,4.3,0.9,5.5,2.7c1,1.5,1.1,3.1,1.1,5.2v12.1h-3.3v-12.1
			c0-1.2-0.1-2.6-0.9-3.6c-0.6-0.9-1.7-1.4-3.1-1.4c-1.2,0-2.4,0.3-3.4,1.5c-1.3,1.6-1.4,3.9-1.4,5.3v10.3h-3.3V133.8z"/>
		<path class="st0" d="M157.5,123.9c1.3,0,2.3,1.1,2.3,2.4c0,1.3-1.1,2.4-2.3,2.4c-1.3,0-2.3-1.1-2.3-2.4
			C155.1,125,156.2,123.9,157.5,123.9z M159.1,133.8v19.6h-3.3v-19.6H159.1z"/>
		<path class="st0" d="M191.3,139.3c-1.7-2.3-4.3-2.9-6-2.9c-3.5,0-6.8,2.6-6.8,7.3s3.3,7.3,6.7,7.3c2,0,4.4-0.9,6.2-3.1v4.1
			c-2.1,1.6-4.3,2-6.1,2c-5.9,0-10.2-4.3-10.2-10.3c0-6,4.3-10.4,10.2-10.4c3,0,5,1.2,5.9,1.9V139.3z"/>
		<path class="st0" d="M213.6,148.4c-0.6,1.1-1.4,2.3-2.3,3.2c-1.7,1.6-3.9,2.4-6.3,2.4c-4.6,0-9.4-3-9.4-10.3
			c0-5.9,3.5-10.4,9.2-10.4c3.7,0,6.1,1.9,7.2,3.6c1.2,1.7,1.9,4.8,1.8,7.4h-14.9c0,4.1,2.8,6.7,6.1,6.7c1.6,0,2.8-0.5,3.9-1.4
			c0.9-0.8,1.6-1.7,2-2.7L213.6,148.4z M210.3,141.4c-0.6-3.1-2.8-5.1-5.6-5.1s-5.1,2.2-5.6,5.1H210.3z"/>
		<path class="st0" d="M218.9,133.8h3.3v2.3c0.6-0.8,2.3-2.7,5.5-2.7c2.3,0,4.3,0.9,5.5,2.7c1,1.5,1.1,3.1,1.1,5.2v12.1H231v-12.1
			c0-1.2-0.1-2.6-0.9-3.6c-0.6-0.9-1.7-1.4-3.1-1.4c-1.2,0-2.4,0.3-3.4,1.5c-1.3,1.6-1.4,3.9-1.4,5.3v10.3h-3.3V133.8z"/>
		<path class="st0" d="M244.1,136.9v16.5h-3.3v-16.5h-2v-3.1h2v-7.1h3.3v7.1h3.3v3.1H244.1z"/>
		<path class="st0" d="M250.6,133.8h3.3v2.1c0.3-0.5,1.7-2.6,4.3-2.6c1,0,2.1,0.4,2.9,0.8l-1.6,3.1c-0.7-0.5-1.4-0.7-1.9-0.7
			c-1.3,0-2.2,0.6-2.7,1.2c-0.6,0.8-1.1,2.1-1.1,5.3v10.4h-3.3V133.8z"/>
		<path class="st0" d="M267.7,145.2c0,1.4,0,3,0.9,4.2c0.5,0.7,1.5,1.5,3.4,1.5s2.9-0.9,3.4-1.5c0.9-1.2,0.9-2.8,0.9-4.2v-11.4h3.3
			v11.8c0,2.4-0.2,4.2-1.7,5.9c-1.7,1.8-4,2.5-5.8,2.5s-4.1-0.6-5.8-2.5c-1.5-1.7-1.7-3.5-1.7-5.9v-11.8h3.3V145.2z"/>
		<path class="st0" d="M286,133.8h3.3v2.1c1.1-1.6,2.7-2.6,4.7-2.6c3.4,0,4.8,2.5,5.2,3.2c1.8-3,4.5-3.2,5.7-3.2
			c5.7,0,6.2,4.9,6.2,7.7v12.4h-3.3v-11.9c0-2.2-0.3-5.2-3.4-5.2c-3.8,0-4.2,3.8-4.2,6.1v10.9h-3.3v-11.6c0-1.4,0-5.4-3.4-5.4
			c-3.8,0-4.2,4-4.2,6.4v10.7H286V133.8z"/>
	</g>
	<g>
		<line class="st1" x1="8.7" y1="106.8" x2="311.6" y2="106.8"/>
		<rect x="8.7" y="105.8" class="st1" width="302.9" height="2"/>
	</g>
	<g>
		<path class="st1" d="M27.6,89.8L14.7,57.4v32.4h-6V25.4h6v29.2l12.9-29.2h6.7L20.3,56.1l14,33.7H27.6z"/>
		<path class="st1" d="M35.1,90.3h-7.8L15.2,60v30.3h-7V24.9h7v27.4l12.1-27.4H35L20.9,56.1L35.1,90.3z M27.9,89.3h5.7L19.8,56.1
			l13.7-30.2h-5.6L14.6,56L27.9,89.3z M9.2,89.3h5V25.9h-5V89.3z"/>
	</g>
	<g>
		<path class="st1" d="M63.1,89.8l-2.4-13.2H47.1l-2.4,13.2h-6.4L51,25.4h5.6l12.8,64.4H63.1z M55.5,48.7c-1-5-1.5-10-1.8-15.2
			c-0.9,12.7-3.4,25.3-5.6,37.8h11.7L55.5,48.7z"/>
		<path class="st1" d="M70.1,90.3h-7.4l-2.4-13.2H47.5l-2.4,13.2h-7.4l12.9-65.4h6.4L70.1,90.3z M63.5,89.3h5.3L56.2,25.9h-4.8
			L38.9,89.3h5.3l2.4-13.2h14.4L63.5,89.3z M60.3,71.9H47.5l0.1-0.6c0.3-1.8,0.7-3.7,1-5.5c1.9-10.5,3.9-21.4,4.6-32.2l1,0
			c0.3,5.3,0.9,10.3,1.8,15.1l0,0L60.3,71.9z M48.6,70.9h10.5L55,48.8c-0.6-3-1-6.1-1.4-9.2c-0.9,8.9-2.5,17.8-4.1,26.4
			C49.2,67.6,48.9,69.2,48.6,70.9z"/>
	</g>
	<g>
		<path class="st1" d="M82.6,30.9v22.7h13.7v5.5H82.6v30.7h-6V25.4h20.5v5.5H82.6z"/>
		<path class="st1" d="M83.1,90.3h-7V24.9h21.5v6.5H83.1v21.7h13.7v6.5H83.1V90.3z M77.1,89.3h5V58.6h13.7v-4.5H82.1V30.4h14.5v-4.5
			H77.1V89.3z"/>
	</g>
	<g>
		<path class="st1" d="M113.5,30.9v22.7h13.7v5.5h-13.7v30.7h-6V25.4H128v5.5H113.5z"/>
		<path class="st1" d="M114,90.3h-7V24.9h21.5v6.5H114v21.7h13.7v6.5H114V90.3z M108,89.3h5V58.6h13.7v-4.5H113V30.4h14.5v-4.5H108
			V89.3z"/>
	</g>
	<g>
		<path class="st1" d="M138.4,89.8V25.4h20.1v5.5h-14.1v22.7h13.7v5.5h-13.7v25.2h14.1v5.5H138.4z"/>
		<path class="st1" d="M158.9,90.3h-21.1V24.9h21.1v6.5h-14.1v21.7h13.7v6.5h-13.7v24.2h14.1V90.3z M138.9,89.3h19.1v-4.5h-14.1
			V58.6h13.7v-4.5h-13.7V30.4h14.1v-4.5h-19.1V89.3z"/>
	</g>
	<g>
		<path class="st1" d="M184.1,30.9v58.9h-6V30.9h-9.7v-5.5h25.3v5.5H184.1z"/>
		<path class="st1" d="M184.6,90.3h-7V31.4H168v-6.5h26.3v6.5h-9.6V90.3z M178.7,89.3h5V30.4h9.6v-4.5H169v4.5h9.7V89.3z"/>
	</g>
	<g>
		<path class="st1" d="M222.1,89.8l-2.4-13.2h-13.6l-2.4,13.2h-6.4l12.7-64.4h5.6l12.8,64.4H222.1z M213,20.9
			c-4.2,0-7.7-3.5-7.7-7.7c0-4.2,3.5-7.7,7.7-7.7c4.2,0,7.7,3.5,7.7,7.7C220.7,17.4,217.2,20.9,213,20.9z M214.5,48.7
			c-1-5-1.5-10-1.8-15.2c-0.9,12.7-3.4,25.3-5.6,37.8h11.7L214.5,48.7z M213,9.3c-2.1,0-3.9,1.7-3.9,3.9c0,2.1,1.7,3.9,3.9,3.9
			c2.1,0,3.9-1.7,3.9-3.9C216.8,11.1,215.1,9.3,213,9.3z"/>
		<path class="st1" d="M229.1,90.3h-7.4l-2.4-13.2h-12.8l-2.4,13.2h-7.4l12.9-65.4h6.4L229.1,90.3z M222.5,89.3h5.3l-12.6-63.4h-4.8
			l-12.5,63.4h5.3l2.4-13.2h14.4L222.5,89.3z M219.3,71.9h-12.9l0.1-0.6c0.3-1.8,0.7-3.7,1-5.5c1.9-10.5,3.9-21.4,4.6-32.2l1,0
			c0.3,5.3,0.9,10.3,1.8,15.1v0L219.3,71.9z M207.7,70.9h10.5L214,48.8c-0.6-3-1-6.1-1.4-9.2c-0.9,8.9-2.5,17.8-4.1,26.4
			C208.3,67.6,208,69.2,207.7,70.9z M213,21.4c-4.5,0-8.2-3.7-8.2-8.2c0-4.5,3.7-8.2,8.2-8.2s8.2,3.7,8.2,8.2
			C221.2,17.7,217.5,21.4,213,21.4z M213,6c-4,0-7.2,3.2-7.2,7.2c0,4,3.2,7.2,7.2,7.2s7.2-3.2,7.2-7.2C220.2,9.2,216.9,6,213,6z
			 M213,17.5c-2.4,0-4.4-2-4.4-4.4s2-4.4,4.4-4.4s4.4,2,4.4,4.4S215.4,17.5,213,17.5z M213,9.8c-1.9,0-3.4,1.5-3.4,3.4
			s1.5,3.4,3.4,3.4s3.4-1.5,3.4-3.4S214.8,9.8,213,9.8z"/>
	</g>
	<g>
		<path class="st1" d="M260.1,89.8l-15-31.5v31.5h-6.6V25.4h8.1c3.8,0,7.7,0,11.1,1.8c5.8,3.1,6.9,9.5,6.9,15.4
			c0,8.9-3,15.4-12.7,16.2l15,30.9H260.1z M249.1,53.6c7.7,0,9-4.5,9-11.3c0-7.4-1.5-11.4-9.7-11.4h-3.2v22.7H249.1z"/>
		<path class="st1" d="M267.7,90.3h-8l-14.1-29.7v29.7h-7.6V24.9h8.6c3.9,0,7.8,0,11.3,1.9c6.5,3.4,7.2,10.7,7.2,15.9
			c0,10.3-4.1,15.7-12.5,16.6L267.7,90.3z M260.4,89.3h5.7l-14.9-30.8l0.7-0.1c8.4-0.7,12.3-5.7,12.3-15.7c0-7.8-2.1-12.6-6.7-15
			c-3.3-1.8-7.1-1.8-10.9-1.8h-7.6v63.4h5.6V56.1L260.4,89.3z M249.1,54.1h-4.5V30.4h3.7c8.6,0,10.2,4.4,10.2,11.9
			C258.6,49.6,257,54.1,249.1,54.1z M245.6,53.1h3.5c7.1,0,8.5-3.8,8.5-10.8c0-7.2-1.4-10.9-9.2-10.9h-2.7V53.1z"/>
	</g>
	<g>
		<path class="st1" d="M305.5,89.8l-14.3-42.5c-1-3-1.8-6-2.6-9.1c0.4,3.4,0.6,6.8,0.6,10.1v41.4h-5.2V25.4h5.2l14.6,43.7
			c0.9,2.5,1.5,5.1,2.3,7.6c-0.4-2.6-0.6-5.3-0.6-7.9V25.4h5.2v64.4H305.5z"/>
		<path class="st1" d="M311.2,90.3h-6.1l-14.4-42.8c-0.4-1.3-0.8-2.6-1.2-3.8c0.1,1.6,0.1,3.2,0.1,4.7v41.9h-6.2V24.9h6.1L304.2,69
			c0.3,0.9,0.6,1.7,0.8,2.6c0-0.9-0.1-1.8-0.1-2.7V24.9h6.2V90.3z M305.8,89.3h4.4V25.9H306v42.9c0,2.6,0.2,5.3,0.6,7.8l-1,0.2
			c-0.3-0.9-0.6-1.8-0.8-2.8c-0.5-1.6-0.9-3.2-1.5-4.8l-14.5-43.4h-4.4v63.4h4.2V48.4c0-3.3-0.2-6.7-0.6-10.1l1-0.2
			c0.7,3,1.6,5.9,2.6,9L305.8,89.3z"/>
	</g>
	<g>
		<path class="st1" d="M270,19.9c-1.2,5.1-1.6,9.9,1.6,13.1c1.9,1.6,3.7,1.8,4.9-0.6c0.9-1.7,0.7-3.8-0.4-5.5
			C274.9,24.9,272.6,22.5,270,19.9z"/>
		<path class="st1" d="M274.2,34.7c-0.9,0-1.9-0.4-2.9-1.3c-3.5-3.5-2.9-8.8-1.8-13.6l0.2-0.9l0.6,0.6c3.1,3.1,5.1,5.3,6.2,7.1
			c1.2,1.8,1.3,4.1,0.4,5.9c-0.6,1.2-1.3,1.8-2.2,2C274.6,34.7,274.4,34.7,274.2,34.7z M270.3,20.9c-0.9,4.2-1.3,8.8,1.7,11.7
			c0.7,0.6,1.7,1.2,2.6,1c0.6-0.1,1.1-0.6,1.5-1.5c0.8-1.5,0.6-3.4-0.3-5C274.7,25.6,273,23.6,270.3,20.9z"/>
	</g>
</g>
</svg>
