<?xml version="1.0" encoding="utf-8"?>
<!-- Generator: Adobe Illustrator 25.2.3, SVG Export Plug-In . SVG Version: 6.00 Build 0)  -->
<svg version="1.1" id="Layer_1" xmlns="http://www.w3.org/2000/svg" xmlns:xlink="http://www.w3.org/1999/xlink" x="0px" y="0px"
	 viewBox="0 0 582.1 180.8" style="enable-background:new 0 0 582.1 180.8;" xml:space="preserve">
<style type="text/css">
	.st0{fill:none;stroke:#000000;stroke-width:2;stroke-miterlimit:10;}
	.st1{fill:none;stroke:#000000;stroke-width:3;stroke-miterlimit:10;}
	.st2{stroke:#000000;stroke-width:2;stroke-linecap:round;stroke-linejoin:round;stroke-miterlimit:10;}
	.st3{stroke:#000000;stroke-width:2;stroke-miterlimit:10;}
</style>
<path class="st0" d="M77.5,50.2c0.6-0.9-0.1-2.1-1.2-2.1H65.5H19.7L22,71.9l-5.2,102.2c-0.1,1.1,0.8,1.9,1.8,1.9h46.9
	c1.2,0,2.1-1,2-2.1l-4-102l0,0L77.5,50.2z"/>
<path class="st1" d="M23.1,83.3"/>
<g>
	<path class="st2" d="M41.4,11.7c-2.4,0.9-6,3.6-9.1,6.6c-1.3,3.8-2.7,7.7-4.6,8.1l1.5,4.9l-0.3,4.4l-9,6.8l45.4,0l-8.8-6.8
		l-0.3-4.4l1.5-4.9c-1.9-0.3-3.2-4.3-4.6-8.1c-3.2-3.1-6.4-6-8.9-6.7"/>
	<path class="st2" d="M44.3,10.5"/>
	<path class="st2" d="M44.2,11.6l-0.8-6.4c0.1-0.2,0.2-0.4,0.2-0.6c0-0.5-0.4-0.9-0.9-0.9c-0.5,0-0.9,0.4-0.9,0.9
		c0,0.2,0.1,0.4,0.2,0.5c0,0,0,0,0.1,0.1l-0.7,6.5"/>
</g>
<line class="st0" x1="35.6" y1="75.5" x2="33.4" y2="176.1"/>
<line class="st0" x1="52.1" y1="176.1" x2="50.1" y2="75.5"/>
<line class="st0" x1="50.1" y1="48.1" x2="50.1" y2="75.5"/>
<line class="st0" x1="35.6" y1="75.5" x2="35.6" y2="48.1"/>
<path class="st3" d="M20,48.3c-24.5-9.7-16.2,34.2-5.7,45.2c5.8,6.2-0.8,6.7-3.1,7.5c-13.1,4.3,9.8,12.6,9.7-3.6
	c0-4.7-2.8-5.8-5.3-9.8c-6.6-10.7-10.2-43,5.2-31.3"/>
<polyline class="st0" points="22,71.9 63.7,71.9 65.2,48.1 "/>
<line class="st0" x1="21.8" y1="76.9" x2="63.9" y2="76.9"/>
<line class="st0" x1="21.5" y1="82" x2="64" y2="82"/>
<g>
	<path d="M124,174.3l-20.7-51.8v51.8h-9.6V71.5h9.6v46.7L124,71.5h10.6l-22.2,49l22.4,53.8H124z"/>
	<path d="M180.7,174.3l-3.9-21.1h-21.7l-3.9,21.1h-10.2l20.4-102.8h8.9l20.5,102.8H180.7z M168.6,108.6c-1.5-8-2.5-16-2.9-24.2
		c-1.4,20.4-5.4,40.4-8.9,60.4h18.7L168.6,108.6z"/>
	<path d="M211.9,80.3v36.2h21.9v8.8h-21.9v49h-9.6V71.5H235v8.8H211.9z"/>
	<path d="M261.2,80.3v36.2h21.9v8.8h-21.9v49h-9.6V71.5h32.7v8.8H261.2z"/>
	<path d="M301,174.3V71.5H333v8.8h-22.5v36.2h21.9v8.8h-21.9v40.2H333v8.8H301z"/>
	<path d="M374.1,80.3v94h-9.6v-94h-15.4v-8.8h40.4v8.8H374.1z"/>
	<path d="M434.8,174.3l-3.9-21.1h-21.7l-3.9,21.1h-10.2l20.4-102.8h8.9l20.5,102.8H434.8z M420.1,64.2c-6.8,0-12.3-5.5-12.3-12.3
		c0-6.8,5.5-12.3,12.3-12.3c6.8,0,12.3,5.5,12.3,12.3C432.5,58.7,426.9,64.2,420.1,64.2z M422.6,108.6c-1.5-8-2.5-16-2.9-24.2
		c-1.4,20.4-5.4,40.4-8.9,60.4h18.7L422.6,108.6z M420.1,45.7c-3.4,0-6.2,2.8-6.2,6.2c0,3.4,2.8,6.2,6.2,6.2c3.4,0,6.2-2.8,6.2-6.2
		C426.3,48.5,423.5,45.7,420.1,45.7z"/>
	<path d="M495.4,174.3L471.5,124v50.3H461V71.5H474c6,0,12.3,0,17.7,2.9c9.2,4.9,11.1,15.1,11.1,24.7c0,14.2-4.8,24.7-20.3,25.9
		l23.9,49.3H495.4z M477.8,116.5c12.3,0,14.3-7.2,14.3-18c0-11.9-2.5-18.2-15.6-18.2h-5.1v36.2H477.8z"/>
	<path d="M567.9,174.3l-22.8-67.8c-1.5-4.8-2.9-9.6-4.2-14.5c0.6,5.4,0.9,10.8,0.9,16.2v66.1h-8.3V71.5h8.3l23.3,69.8
		c1.4,4,2.5,8.2,3.7,12.2c-0.6-4.2-0.9-8.5-0.9-12.6V71.5h8.3v102.8H567.9z"/>
	<path d="M511.3,62.6c-1.9,8.2-2.5,15.8,2.6,20.9c3,2.6,5.9,2.9,7.8-0.9c1.4-2.8,1.1-6.1-0.6-8.7C519.1,70.7,515.5,66.8,511.3,62.6z
		"/>
</g>
</svg>
